{"title":"The.Place.Beyond.The.Pines.2012.DVDSCR.X264.AC3-VoXHD","uid":8437856,"size":2163382593,"categoryP":"video","categoryS":"movies","magnet":"?xt=urn:btih:5c364bf2682fdace02f2eb15750959aa95b24748&amp;dn=The.Place.Beyond.The.Pines.2012.DVDSCR.X264.AC3-VoXHD&amp;tr=udp%3A%2F%2Ftracker.openbittorrent.com%3A80&amp;tr=udp%3A%2F%2Fopen.demonii.com%3A1337&amp;tr=udp%3A%2F%2Ftracker.coppersurfer.tk%3A6969&amp;tr=udp%3A%2F%2Fexodus.desync.com%3A6969","seeders":0,"leechers":0,"uploader":"Gh0stNet","files":2,"time":1367686162,"description":"Source: Dragon Many Thx\n\nVideo\nID                                       : 1\nFormat                                   : AVC\nFormat/Info                              : Advanced Video Codec\nFormat profile                           : &lt;a class=&quot;__cf_email__&quot; href=&quot;/cdn-cgi/l/email-protection&quot; data-cfemail=&quot;1d55747a755d5129332c&quot;&gt;[email&amp;#160;protected]&lt;/a&gt;&lt;script data-cfhash='f9e31' type=&quot;text/javascript&quot;&gt;\n/* &lt;![CDATA[ */!function(){try{var t=&quot;currentScript&quot;in document?document.currentScript:function(){for(var t=document.getElementsByTagName(&quot;script&quot;),e=t.length;e--;)if(t[e].getAttribute(&quot;data-cfhash&quot;))return t[e]}();if(t&amp;&amp;t.previousSibling){var e,r,n,i,c=t.previousSibling,a=c.getAttribute(&quot;data-cfemail&quot;);if(a){for(e=&quot;&quot;,r=parseInt(a.substr(0,2),16),n=2;a.length-n;n+=2)i=parseInt(a.substr(n,2),16)^r,e+=String.fromCharCode(i);e=document.createTextNode(e),c.parentNode.replaceChild(e,c)}t.parentNode.removeChild(t);}}catch(u){}}()/* ]]&gt; */&lt;/script&gt;\nFormat settings, CABAC                   : Yes\nFormat settings, ReFrames                : 4 frames\nCodec ID                                 : V_MPEG4/ISO/AVC\nDuration                                 : 2h 20mn\nBit rate                                 : 1 864 Kbps\nWidth                                    : 720 pixels\nHeight                                   : 288 pixels\nDisplay aspect ratio                     : 2.500\nFrame rate mode                          : Constant\nFrame rate                               : 23.976 fps\nColor space                              : YUV\nChroma subsampling                       : 4:2:0\nBit depth                                : 8 bits\nScan type                                : Progressive\nBits/(Pixel*Frame)                       : 0.375\nStream size                              : 1.79 GiB (89%)\nWriting library                          : x264 core 130 r2273 b3065e6\n\n\nAudio\nID                                       : 2\nFormat                                   : AC-3\nFormat/Info                              : Audio Coding 3\nMode extension                           : CM (complete main)\nFormat settings, Endianness              : Big\nCodec ID                                 : A_AC3\nDuration                                 : 2h 20mn\nBit rate mode                            : Constant\nBit rate                                 : 192 Kbps\nChannel(s)                               : 2 channels\nChannel positions                        : Front: L R\nSampling rate                            : 48.0 KHz\nBit depth                                : 16 bits\nCompression mode                         : Lossy\nDelay relative to video                  : 16ms\nStream size                              : 193 MiB (9%)\nDefault                                  : Yes\nForced                                   : No\n\nScreens:\n &lt;a href=&quot;\nhttp://i.imgur.com/bW6fIvz.png&quot; rel=&quot;nofollow&quot; target=&quot;_NEW&quot;&gt;\nhttp://i.imgur.com/bW6fIvz.png&lt;/a&gt; &lt;a href=&quot;\nhttp://i.imgur.com/mu1k9xu.png&quot; rel=&quot;nofollow&quot; target=&quot;_NEW&quot;&gt;\nhttp://i.imgur.com/mu1k9xu.png&lt;/a&gt; &lt;a href=&quot;\nhttp://i.imgur.com/Dx1HSIR.png&quot; rel=&quot;nofollow&quot; target=&quot;_NEW&quot;&gt;\nhttp://i.imgur.com/Dx1HSIR.png&lt;/a&gt; &lt;a href=&quot;\nhttp://i.imgur.com/GQPeOS2.png&quot; rel=&quot;nofollow&quot; target=&quot;_NEW&quot;&gt;\nhttp://i.imgur.com/GQPeOS2.png&lt;/a&gt; &lt;a href=&quot;\nhttp://i.imgur.com/KOwxsHJ.png&quot; rel=&quot;nofollow&quot; target=&quot;_NEW&quot;&gt;\nhttp://i.imgur.com/KOwxsHJ.png&lt;/a&gt;","torrent":{"xt":"urn:btih:5c364bf2682fdace02f2eb15750959aa95b24748","amp;dn":"The.Place.Beyond.The.Pines.2012.DVDSCR.X264.AC3-VoXHD","amp;tr":["udp%3A%2F%2Ftracker.openbittorrent.com%3A80","udp%3A%2F%2Fopen.demonii.com%3A1337","udp%3A%2F%2Ftracker.coppersurfer.tk%3A6969","udp%3A%2F%2Fexodus.desync.com%3A6969"],"infoHash":"5c364bf2682fdace02f2eb15750959aa95b24748","infoHashBuffer":{"type":"Buffer","data":[92,54,75,242,104,47,218,206,2,242,235,21,117,9,89,170,149,178,71,72]},"announce":[],"urlList":[]}}